<?xml version="1.0" standalone="no"?>
<!DOCTYPE svg PUBLIC "-//W3C//DTD SVG 20010904//EN"
 "http://www.w3.org/TR/2001/REC-SVG-20010904/DTD/svg10.dtd">
<svg version="1.0" xmlns="http://www.w3.org/2000/svg"
 width="700.000000pt" height="700.000000pt" viewBox="0 0 700.000000 700.000000"
 preserveAspectRatio="xMidYMid meet">
<metadata>
Created by potrace 1.14, written by Peter Selinger 2001-2017
</metadata>
<g transform="translate(0.000000,700.000000) scale(0.100000,-0.100000)"
fill="#000000" stroke="none">
<path d="M2339 6410 c-732 -66 -1325 -603 -1471 -1332 -32 -163 -32 -444 0
-607 52 -256 126 -422 317 -706 150 -222 243 -406 314 -620 48 -147 63 -212
136 -600 70 -372 198 -851 298 -1120 170 -454 336 -705 529 -800 69 -34 85
-38 157 -38 69 -1 87 3 144 31 233 115 351 485 397 1252 6 91 13 356 15 590 3
234 11 459 16 500 15 104 62 227 121 317 58 89 164 203 187 203 24 0 121 -102
180 -189 28 -41 64 -109 80 -150 54 -139 59 -196 65 -676 6 -456 16 -668 42
-915 59 -561 173 -842 383 -938 45 -21 71 -26 134 -25 69 0 86 4 154 38 195
96 361 347 530 800 98 262 216 701 287 1070 21 105 51 260 67 345 66 337 183
612 395 926 238 353 327 601 341 949 14 348 -81 682 -276 971 -420 624 -1195
884 -1905 637 -56 -19 -163 -67 -240 -106 l-138 -72 -98 0 -98 0 -138 72
c-224 115 -410 171 -644 192 -126 12 -153 12 -281 1z m366 -245 c153 -25 262
-62 440 -149 187 -92 240 -109 355 -109 115 0 168 17 355 109 251 124 414 164
666 164 341 0 638 -109 910 -336 240 -200 417 -507 475 -826 23 -126 23 -361
0 -488 -34 -189 -118 -393 -226 -550 -130 -190 -184 -276 -244 -391 -127 -246
-199 -467 -262 -804 -118 -640 -226 -1043 -379 -1415 -175 -428 -364 -629
-488 -520 -123 108 -205 476 -237 1065 -6 116 -15 410 -20 655 -7 405 -10 452
-29 522 -52 191 -150 358 -291 500 -101 101 -149 128 -230 128 -80 0 -126 -26
-228 -127 -142 -141 -240 -308 -293 -501 -19 -70 -22 -116 -30 -522 -12 -660
-32 -965 -80 -1249 -53 -314 -144 -501 -245 -501 -239 0 -555 721 -748 1705
-19 99 -49 250 -65 335 -53 276 -114 457 -231 696 -61 124 -103 192 -280 454
-92 136 -174 344 -206 520 -21 116 -24 351 -5 465 73 443 362 835 767 1039
110 55 271 110 384 129 112 20 351 21 465 2z"/>
<path d="M2333 6013 c-13 -2 -36 -18 -53 -34 -57 -57 -32 -167 43 -187 18 -5
67 -6 110 -3 69 6 80 10 109 38 26 27 31 39 31 79 0 41 -4 51 -36 81 -35 31
-40 33 -109 32 -40 -1 -83 -4 -95 -6z"/>
<path d="M1895 5874 c-371 -197 -620 -584 -642 -1000 l-6 -111 29 -32 c53 -59
154 -50 187 17 8 15 17 69 21 119 24 332 205 616 503 792 83 49 103 75 103
132 0 33 -6 47 -34 75 -43 43 -90 45 -161 8z"/>
</g>
</svg>
