<?xml version="1.0" standalone="no"?>
<!DOCTYPE svg PUBLIC "-//W3C//DTD SVG 20010904//EN"
 "http://www.w3.org/TR/2001/REC-SVG-20010904/DTD/svg10.dtd">
<svg version="1.0" xmlns="http://www.w3.org/2000/svg"
 width="768.000000pt" height="768.000000pt" viewBox="0 0 768.000000 768.000000"
 preserveAspectRatio="xMidYMid meet">
<metadata>
Created by potrace 1.14, written by Peter Selinger 2001-2017
</metadata>
<g transform="translate(0.000000,768.000000) scale(0.100000,-0.100000)"
fill="#000000" stroke="none">
<path d="M2810 6260 c-314 -13 -445 -37 -613 -114 -261 -119 -416 -316 -494
-626 -15 -58 -17 -217 -20 -1575 -4 -1342 -2 -1524 12 -1638 18 -142 38 -210
91 -306 109 -198 281 -332 514 -399 80 -23 106 -24 465 -32 489 -11 1790 -11
2235 0 331 7 349 9 433 34 211 63 363 175 479 353 112 171 135 275 148 658 12
357 12 2104 0 2505 -9 330 -20 407 -71 540 -65 168 -184 316 -333 414 -179
117 -299 152 -611 177 -166 14 -1954 21 -2235 9z m2140 -135 c406 -15 582 -60
762 -196 130 -97 256 -291 295 -454 25 -104 32 -1307 9 -1467 -9 -59 -16 -140
-16 -180 0 -40 -4 -89 -10 -108 -5 -19 -17 -77 -26 -130 -9 -52 -20 -99 -25
-104 -5 -6 -9 -27 -9 -47 0 -21 -4 -41 -10 -44 -5 -3 -10 -18 -10 -32 0 -14
-9 -34 -20 -43 -12 -10 -20 -22 -18 -26 3 -12 -20 -53 -48 -83 -13 -14 -24
-33 -24 -43 0 -9 -4 -20 -10 -23 -5 -3 -10 -2 -10 3 0 5 -7 9 -15 9 -8 0 -15
-7 -15 -15 0 -12 -2 -12 -17 -1 -10 9 -14 9 -10 2 5 -7 -2 -19 -17 -28 -14 -9
-27 -24 -29 -33 -3 -11 -5 -8 -6 8 -2 35 -12 70 -20 70 -4 0 -2 -39 5 -87 16
-108 18 -341 4 -413 -23 -122 -91 -217 -207 -290 -159 -101 -367 -153 -763
-191 -175 -16 -1168 -24 -1411 -10 -626 35 -934 116 -1103 288 -91 92 -126
197 -126 378 0 108 23 346 36 367 3 4 1 8 -4 8 -5 0 -15 -21 -23 -47 -7 -26
-14 -42 -17 -35 -4 12 -8 9 -47 -26 -11 -10 -16 -9 -28 3 -9 8 -17 19 -19 25
-2 6 -11 12 -20 14 -19 2 -37 16 -21 16 5 0 9 10 7 23 -1 12 -3 25 -3 30 -1 4
-7 6 -13 5 -8 -2 -15 12 -18 32 -3 19 -14 53 -24 75 -10 22 -21 59 -24 82 -2
24 -8 40 -13 37 -5 -3 -9 6 -9 20 0 14 -5 28 -11 32 -8 4 -7 9 2 15 12 7 12
12 1 29 -7 12 -16 54 -19 93 -2 40 -9 74 -14 75 -5 2 -9 18 -9 35 0 18 -4 50
-9 72 -5 22 -12 80 -16 129 -3 49 -8 92 -10 96 -2 3 -7 255 -10 560 -9 746 1
875 81 1039 93 191 227 322 412 401 172 74 202 77 952 85 272 3 497 9 500 12
6 6 1052 -3 1290 -12z m800 -3009 c0 -3 -4 -8 -10 -11 -5 -3 -10 -1 -10 4 0 6
5 11 10 11 6 0 10 -2 10 -4z"/>
<path d="M2624 5541 c-177 -46 -281 -210 -320 -502 -23 -175 -15 -524 16 -699
43 -245 75 -334 290 -819 120 -271 175 -347 314 -436 152 -97 405 -155 679
-155 109 0 158 22 197 92 53 92 24 243 -57 305 -36 28 -85 34 -118 15 -15 -8
-12 -12 20 -28 61 -30 98 -92 103 -169 4 -63 3 -66 -30 -99 -44 -44 -100 -53
-219 -37 -275 36 -512 146 -617 284 -55 74 -75 110 -117 212 -21 50 -79 178
-130 285 -104 219 -153 364 -184 551 -87 519 -8 921 202 1031 35 19 58 22 142
22 114 -1 174 -17 395 -109 73 -30 139 -55 148 -55 8 0 13 -3 9 -6 -3 -4 0
-12 7 -19 21 -22 226 -126 226 -116 0 6 -13 18 -30 27 -22 14 -27 21 -18 31 8
10 5 13 -11 13 -14 0 -20 4 -15 11 3 6 16 8 28 5 39 -12 180 -34 252 -41 44
-3 120 0 199 10 88 11 132 12 139 5 7 -7 3 -10 -12 -10 -13 0 -22 -6 -22 -15
0 -8 9 -15 20 -15 40 0 164 50 235 95 52 32 34 25 230 98 219 82 293 101 385
101 130 1 202 -51 267 -192 54 -116 74 -221 80 -428 11 -342 -31 -541 -184
-884 -36 -80 -94 -217 -130 -305 -35 -88 -79 -187 -96 -220 -87 -167 -338
-314 -615 -360 -131 -22 -213 -17 -247 15 -49 46 -54 112 -14 192 21 42 85 98
112 98 10 0 17 6 15 13 -3 7 -26 13 -55 15 -44 3 -56 -1 -94 -30 -65 -50 -92
-105 -91 -189 0 -81 27 -140 81 -176 31 -21 45 -23 165 -23 246 1 451 49 617
147 113 66 212 192 288 368 24 55 85 190 136 300 106 230 117 256 156 383 91
295 111 709 49 1014 -58 282 -184 408 -404 408 -84 0 -173 -19 -442 -93 -396
-110 -536 -132 -759 -124 -192 7 -337 35 -612 117 -72 22 -178 51 -235 65
-109 27 -271 40 -324 26z m859 -358 c-7 -2 -19 -2 -25 0 -7 3 -2 5 12 5 14 0
19 -2 13 -5z"/>
<path d="M3553 5133 c9 -2 23 -2 30 0 6 3 -1 5 -18 5 -16 0 -22 -2 -12 -5z"/>
<path d="M2879 5017 c-189 -53 -276 -210 -284 -507 l-3 -145 8 125 c11 178 30
250 66 250 7 0 41 29 74 64 34 34 73 69 88 77 15 7 35 19 44 27 12 10 28 12
52 8 20 -4 37 -2 41 4 7 11 45 14 45 3 0 -5 37 -9 82 -10 63 -1 85 -5 94 -18
8 -11 14 -12 19 -5 3 5 11 8 16 5 5 -4 9 -2 9 4 0 6 -11 13 -25 17 -14 3 -23
10 -20 14 3 4 -5 11 -18 15 -59 20 -63 23 -44 24 10 1 27 -4 38 -9 10 -6 19
-7 19 -3 0 17 -130 61 -203 68 -28 3 -73 -1 -98 -8z"/>
<path d="M4656 5015 c-32 -9 -86 -27 -118 -42 l-59 -26 36 -13 c27 -9 55 -10
103 -3 147 21 274 -11 325 -82 16 -21 33 -39 38 -39 5 0 9 -6 9 -13 0 -8 11
-24 25 -37 14 -13 25 -29 25 -36 0 -6 6 -14 13 -17 8 -3 13 3 13 14 0 11 -5
19 -12 19 -6 0 -9 10 -7 23 3 12 -2 42 -11 67 -8 24 -12 48 -9 53 3 6 1 7 -5
3 -7 -4 -12 -3 -12 2 0 20 -83 95 -127 114 -60 26 -152 32 -227 13z"/>
<path d="M5705 4878 c-2 -7 -6 -65 -10 -128 -13 -257 -119 -830 -197 -1068
-15 -46 -17 -67 -9 -75 14 -14 12 -16 51 78 58 142 114 364 155 615 16 99 34
590 21 590 -4 0 -8 -6 -11 -12z"/>
<path d="M2015 4610 c6 -287 24 -419 96 -704 31 -122 105 -300 121 -290 4 3 7
8 4 12 -2 4 -24 95 -50 202 -62 265 -122 599 -147 810 -11 96 -22 180 -24 185
-3 6 -3 -91 0 -215z"/>
<path d="M5060 4056 c0 -8 -23 -39 -50 -70 -214 -233 -673 -389 -1150 -390
-249 0 -467 31 -669 96 -162 51 -354 150 -458 234 -38 31 -63 42 -63 29 0 -3
9 -22 19 -43 35 -66 181 -182 316 -250 188 -94 385 -143 692 -173 291 -28 713
43 977 165 167 77 315 206 363 315 13 31 28 64 33 73 6 11 6 19 0 23 -6 3 -10
0 -10 -9z"/>
<path d="M5631 3214 c0 -11 3 -14 6 -6 3 7 2 16 -1 19 -3 4 -6 -2 -5 -13z"/>
<path d="M1566 5515 c-20 -84 -34 -259 -37 -445 -2 -85 -4 -109 -8 -75 -4 31
-9 -37 -14 -175 -4 -124 -10 -245 -12 -270 -2 -25 -7 -81 -10 -125 -3 -44 -8
-81 -12 -82 -5 -2 -7 -32 -6 -68 1 -42 -3 -70 -12 -78 -9 -9 -10 -19 -3 -30 7
-13 5 -17 -9 -17 -16 0 -19 -8 -18 -52 0 -35 -4 -53 -14 -56 -10 -3 -12 1 -8
17 7 29 -1 27 -13 -4 -5 -14 -14 -25 -20 -25 -6 0 -9 4 -6 9 3 5 -1 12 -10 15
-26 10 -44 7 -38 -8 5 -14 -32 -30 -48 -20 -12 7 21 44 38 44 8 0 11 8 9 21
-3 17 0 20 15 16 11 -3 21 1 24 9 8 22 -12 17 -65 -15 -39 -25 -48 -27 -53
-15 -9 22 -7 31 3 16 6 -10 10 -10 20 2 10 12 9 17 -7 25 -11 6 -22 25 -26 43
-5 26 -9 30 -17 18 -7 -11 -8 -8 -3 13 4 16 2 27 -4 27 -6 0 -14 19 -18 43 -4
23 -9 36 -11 29 -8 -21 -21 -4 -16 22 3 16 10 23 19 19 10 -4 12 0 8 11 -7 18
-20 21 -29 6 -7 -11 -35 -2 -35 13 0 6 3 7 7 4 10 -10 32 27 23 38 -5 5 -9 13
-9 18 -1 4 -2 13 -2 20 -1 6 -5 -4 -9 -23 -6 -27 -8 -17 -10 48 -3 97 -3 98
-11 107 -4 3 -6 -2 -6 -12 0 -10 -1 -45 -3 -78 l-3 -60 -7 50 c-5 28 -9 176
-11 330 l-3 280 -7 -240 c-8 -310 -11 -2788 -3 -2849 l7 -46 299 0 c236 0 299
3 294 13 -22 52 -67 215 -75 272 -12 80 -17 3233 -5 3303 11 68 -1 49 -20 -33z
m-109 -1397 c-3 -8 -6 -5 -6 6 -1 11 2 17 5 13 3 -3 4 -12 1 -19z m-41 -105
c-7 -7 -26 7 -26 19 0 6 6 6 15 -2 9 -7 13 -15 11 -17z m-56 -14 c0 -5 -7 -6
-15 -3 -8 4 -15 13 -15 21 0 13 3 13 15 3 8 -7 15 -16 15 -21z"/>
<path d="M6162 3915 c-3 -1354 -5 -1603 -18 -1680 -18 -108 -35 -168 -63 -223
-12 -23 -21 -44 -21 -47 0 -3 130 -5 289 -5 221 0 292 3 298 12 9 15 4 2466
-7 2888 -5 237 -7 260 -10 135 -3 -168 -7 -225 -15 -233 -3 -3 -5 13 -5 35 0
32 -4 42 -20 46 -23 6 -24 3 -9 -24 8 -16 7 -25 -6 -39 -9 -10 -14 -24 -10
-29 3 -6 1 -11 -5 -11 -6 0 -18 -7 -27 -16 -12 -11 -13 -18 -4 -27 18 -18 13
-30 -14 -25 -24 5 -30 -10 -10 -24 7 -5 6 -14 -2 -27 -7 -11 -10 -27 -7 -36 7
-18 0 -19 -29 -4 -18 9 -20 9 -10 -2 10 -10 8 -16 -12 -29 l-25 -16 25 -34
c23 -31 23 -34 7 -46 -9 -7 -18 -8 -20 -3 -2 5 -8 9 -14 9 -6 0 -8 -7 -4 -15
5 -14 2 -16 -44 -19 -8 -1 -21 -5 -27 -9 -16 -10 -36 1 -27 14 3 5 10 7 15 4
24 -15 5 17 -32 54 -35 35 -40 45 -34 70 3 16 2 32 -3 35 -9 5 -18 89 -25 218
-1 16 -5 28 -9 28 -4 0 -7 10 -7 23 0 12 -2 51 -5 87 -3 36 -8 128 -11 205 -3
77 -10 167 -16 200 -5 33 -13 80 -17 105 -4 25 -8 -670 -10 -1545z m335 610
c1 -5 -8 -11 -22 -11 -25 -2 -32 6 -18 20 9 9 36 3 40 -9z m-67 -137 c0 -5 -7
-8 -15 -8 -8 0 -15 2 -15 4 0 2 -3 12 -6 21 -6 15 -4 15 15 4 11 -8 21 -17 21
-21z m-73 6 c-3 -3 -12 -4 -19 -1 -8 3 -5 6 6 6 11 1 17 -2 13 -5z m33 -33 c0
-9 -24 -21 -42 -21 -6 0 -6 6 2 15 14 16 40 20 40 6z m35 -31 c3 -5 1 -10 -4
-10 -6 0 -11 5 -11 10 0 6 2 10 4 10 3 0 8 -4 11 -10z"/>
<path d="M6590 4870 c0 -5 5 -10 11 -10 5 0 7 5 4 10 -3 6 -8 10 -11 10 -2 0
-4 -4 -4 -10z"/>
<path d="M921 4664 c0 -11 3 -14 6 -6 3 7 2 16 -1 19 -3 4 -6 -2 -5 -13z"/>
<path d="M919 4129 c-1 -272 -4 -532 -8 -579 -8 -82 -8 -80 -9 56 l-2 142 -71
-2 c-45 -2 -74 -7 -79 -16 -4 -7 -13 -9 -20 -5 -9 5 -11 4 -6 -3 4 -7 14 -12
23 -12 11 0 8 -6 -11 -21 -29 -23 -33 -34 -12 -42 9 -4 13 2 12 15 -1 29 38
43 55 20 8 -9 9 -14 5 -10 -5 4 -15 3 -23 -3 -10 -9 -11 -15 -2 -26 17 -20 0
-33 -45 -37 -31 -2 -37 0 -33 15 3 9 1 23 -4 30 -11 18 -52 21 -45 3 3 -7 0
-15 -7 -18 -7 -4 4 -4 23 -1 25 4 31 2 20 -5 -8 -5 -37 -7 -65 -5 -27 3 -45 1
-40 -3 12 -9 13 -38 1 -49 -5 -4 -7 -3 -3 2 3 6 2 17 -3 25 -7 12 -10 12 -15
-3 -6 -14 -10 -15 -28 -4 -22 12 -29 14 -60 16 -10 0 -15 6 -12 11 3 6 1 10
-4 10 -16 0 -13 16 4 34 19 18 20 33 2 17 -8 -6 -22 -12 -33 -14 -10 -1 -19
-7 -19 -12 0 -6 3 -9 7 -8 5 2 8 -6 8 -17 0 -17 -7 -20 -39 -20 -22 0 -43 5
-46 10 -4 6 -21 8 -40 4 -31 -5 -33 -4 -28 15 3 13 1 21 -7 21 -6 0 -10 10 -8
22 2 15 13 24 35 30 18 5 33 13 33 18 0 6 -11 8 -25 4 -15 -4 -32 -1 -40 6 -8
7 -15 9 -15 5 0 -4 -7 -2 -15 5 -8 7 -12 17 -9 22 3 5 0 8 -7 7 -8 -2 -24 1
-37 5 -17 6 -21 13 -18 32 4 22 2 24 -17 18 -12 -4 -25 -11 -28 -16 -3 -5 -10
1 -14 14 -4 12 -8 26 -10 31 -1 4 -3 11 -4 16 0 5 -8 12 -17 15 -12 5 -15 0
-12 -22 2 -15 8 -27 15 -27 20 0 25 -12 12 -33 -9 -15 -20 -18 -46 -15 l-33 5
0 -1901 0 -1901 3840 0 3840 0 0 1919 c0 1056 -3 1926 -6 1935 -5 12 -10 13
-25 5 -16 -8 -19 -6 -19 12 0 16 5 20 20 16 11 -3 20 -1 20 4 0 5 -4 10 -10
10 -5 1 -15 2 -20 3 -6 0 -15 7 -19 15 -7 11 -12 9 -22 -10 -16 -29 -17 -52
-4 -61 6 -4 2 -8 -7 -8 -20 0 -22 -8 -9 -29 14 -21 2 -41 -24 -41 -19 0 -22
-4 -18 -21 5 -19 3 -20 -14 -11 -14 8 -23 8 -31 0 -6 -6 -27 -11 -47 -10 -19
1 -45 -3 -57 -8 -21 -8 -20 -9 9 -9 30 -1 33 -4 39 -40 4 -22 13 -42 21 -45 8
-3 12 -2 9 3 -3 5 3 11 13 14 13 3 18 0 16 -12 -2 -9 -4 -19 -4 -23 -1 -8 -42
-4 -58 5 -6 4 -14 3 -18 -3 -10 -16 -38 -12 -31 5 3 8 1 15 -4 15 -6 0 -10 -8
-10 -18 0 -16 -7 -18 -48 -16 -36 1 -49 -2 -49 -12 0 -13 11 -18 31 -15 5 1 4
-5 -4 -13 -10 -13 -10 -19 0 -31 7 -8 16 -12 21 -10 12 8 59 -5 59 -16 0 -14
-28 -11 -33 4 -4 8 -8 9 -14 1 -14 -19 -47 -32 -74 -29 -14 2 -31 0 -38 -4
-19 -12 -1 -41 26 -41 13 0 22 -4 19 -9 -3 -5 -16 -7 -29 -3 -18 4 -20 3 -11
-9 9 -11 8 -17 -4 -29 -14 -13 -15 -12 -10 2 4 8 -1 26 -9 39 -9 12 -11 19 -5
15 7 -4 12 -2 12 3 0 15 -12 14 -39 -5 -15 -11 -21 -23 -18 -35 3 -11 1 -22
-4 -25 -5 -3 -7 -9 -5 -13 3 -4 -10 -8 -27 -9 -17 -2 -39 -9 -48 -18 -16 -15
-49 -10 -49 8 0 5 -5 6 -10 3 -6 -4 -17 -1 -25 5 -12 10 -15 9 -15 -9 0 -12 4
-20 8 -17 4 2 9 -5 10 -17 1 -15 -8 -28 -28 -39 -21 -12 -30 -13 -30 -5 0 7
-7 3 -15 -7 -8 -11 -15 -15 -15 -10 0 6 -13 9 -30 6 -16 -2 -30 -8 -30 -13 0
-5 -7 -9 -15 -9 -8 0 -15 -6 -15 -13 0 -9 12 -11 40 -9 25 3 40 0 40 -7 0 -6
-4 -11 -10 -11 -5 0 -10 -11 -10 -24 0 -24 -34 -43 -46 -25 -6 11 -27 12 -21
2 3 -5 1 -17 -4 -28 -7 -17 -8 -17 -8 8 -1 15 -5 27 -10 27 -6 0 -10 -193 -10
-467 -2 -795 -11 -957 -66 -1131 -43 -137 -154 -283 -303 -400 -126 -98 -327
-181 -493 -202 -114 -14 -3991 -14 -4109 0 -142 17 -324 87 -449 173 -68 46
-178 154 -221 217 -68 100 -131 244 -156 359 -20 89 -31 614 -40 1901 -3 558
-8 1017 -10 1019 -2 2 -4 -218 -5 -490z m-768 -384 c0 -5 -11 -11 -23 -12 -13
-1 -17 0 -10 3 6 3 9 10 6 16 -4 5 1 8 10 6 10 -1 17 -7 17 -13z m7416 -21
c-3 -4 -2 -15 4 -26 7 -14 6 -23 -7 -35 -15 -16 -17 -16 -30 2 -14 19 -9 40 7
29 5 -3 7 -10 4 -15 -4 -5 -2 -9 3 -9 16 0 22 13 11 26 -10 12 -5 34 8 34 4 0
3 -3 0 -6z m-6686 -23 c3 -8 3 -26 1 -40 l-5 -25 -8 23 c-5 12 -13 19 -19 16
-6 -3 -13 2 -17 12 -4 10 -11 21 -17 26 -6 4 5 6 24 5 19 -2 38 -9 41 -17z
m6628 -17 c8 -7 -12 -24 -28 -24 -21 0 -44 23 -34 33 5 6 52 -1 62 -9z m-139
-133 c0 -18 -17 -20 -36 -6 -18 14 -18 14 9 15 15 0 27 -4 27 -9z m-6463 -113
c-3 -8 -6 -5 -6 6 -1 11 2 17 5 13 3 -3 4 -12 1 -19z m6288 -58 c-3 -5 -10
-10 -16 -10 -5 0 -9 5 -9 10 0 6 7 10 16 10 8 0 12 -4 9 -10z m-105 -116 c0
-8 -4 -14 -9 -14 -11 0 -22 26 -14 34 9 9 23 -3 23 -20z m-50 6 c0 -5 -2 -10
-4 -10 -3 0 -8 5 -11 10 -3 6 -1 10 4 10 6 0 11 -4 11 -10z m-40 -4 c0 -3 -4
-8 -10 -11 -5 -3 -10 -1 -10 4 0 6 5 11 10 11 6 0 10 -2 10 -4z m-28 -44 c-3
-10 -8 -10 -15 -3 -16 16 -24 13 -31 -11 -5 -19 -8 -21 -16 -8 -7 11 -5 18 6
26 21 16 63 13 56 -4z"/>
<path d="M1198 4363 c7 -3 16 -2 19 1 4 3 -2 6 -13 5 -11 0 -14 -3 -6 -6z"/>
<path d="M1255 4160 c3 -5 8 -10 11 -10 2 0 4 5 4 10 0 6 -5 10 -11 10 -5 0
-7 -4 -4 -10z"/>
<path d="M830 3969 c0 -5 5 -7 10 -4 6 3 10 8 10 11 0 2 -4 4 -10 4 -5 0 -10
-5 -10 -11z"/>
<path d="M7640 3944 c0 -8 5 -12 10 -9 6 4 8 11 5 16 -9 14 -15 11 -15 -7z"/>
<path d="M152 3897 c-7 -8 -6 -18 4 -31 8 -11 14 -16 15 -10 0 5 2 17 4 26 4
23 -10 32 -23 15z"/>
<path d="M10 3839 c0 -5 5 -7 10 -4 6 3 10 8 10 11 0 2 -4 4 -10 4 -5 0 -10
-5 -10 -11z"/>
<path d="M286 3841 c-4 -5 -2 -12 3 -15 5 -4 12 -2 15 3 4 5 2 12 -3 15 -5 4
-12 2 -15 -3z"/>
<path d="M360 3840 c-11 -8 -4 -10 27 -8 23 1 40 5 37 10 -7 11 -46 10 -64 -2z"/>
<path d="M767 3842 c-10 -2 -16 -9 -14 -15 3 -8 23 -11 58 -9 50 3 68 7 58 16
-7 6 -83 13 -102 8z"/>
<path d="M886 3833 c-6 -14 -5 -15 5 -6 7 7 10 15 7 18 -3 3 -9 -2 -12 -12z"/>
<path d="M7470 3836 c0 -24 22 -30 37 -11 7 11 13 13 13 7 0 -7 5 -12 11 -12
8 0 8 5 -1 15 -16 19 -60 20 -60 1z"/>
<path d="M820 3791 c0 -4 11 -6 25 -3 14 2 25 6 25 8 0 2 -11 4 -25 4 -14 0
-25 -4 -25 -9z"/>
<path d="M425 3720 c6 -10 4 -12 -8 -7 -9 3 -19 2 -22 -3 -4 -6 3 -10 14 -10
24 0 36 16 20 26 -8 5 -9 3 -4 -6z"/>
<path d="M653 3710 c-18 -8 -33 -18 -33 -21 0 -9 65 -3 83 8 15 8 15 9 -1 18
-12 8 -26 6 -49 -5z"/>
<path d="M280 3652 c0 -5 7 -9 15 -9 8 0 15 4 15 9 0 4 -7 8 -15 8 -8 0 -15
-4 -15 -8z"/>
<path d="M7370 3650 c-12 -8 -9 -9 12 -8 15 1 24 6 22 10 -7 10 -16 10 -34 -2z"/>
<path d="M6928 3324 c-7 -28 6 -53 16 -29 3 9 11 13 17 9 8 -4 9 -3 5 5 -4 6
-11 9 -16 6 -5 -3 -10 3 -12 12 -3 15 -5 15 -10 -3z"/>
<path d="M6770 3196 c0 -9 5 -16 10 -16 6 0 10 4 10 9 0 6 -4 13 -10 16 -5 3
-10 -1 -10 -9z"/>
<path d="M6813 3175 c0 -17 15 -19 35 -6 11 7 10 10 -3 15 -25 9 -32 7 -32 -9z"/>
<path d="M1670 1915 c0 -3 4 -13 9 -23 5 -9 19 -42 31 -72 44 -115 174 -273
285 -346 64 -43 198 -90 295 -104 41 -6 89 -13 105 -16 144 -25 2703 -27 2914
-3 208 23 377 87 487 182 65 56 171 197 197 262 8 22 23 57 31 78 9 20 14 37
12 37 -2 0 -27 -31 -56 -70 -81 -110 -217 -222 -350 -290 -71 -36 -199 -77
-280 -90 -55 -8 -463 -10 -1535 -8 l-1460 3 -72 23 c-111 34 -241 93 -313 142
-81 55 -194 167 -243 243 -32 48 -57 71 -57 52z"/>
</g>
</svg>
